<?xml version="1.0" standalone="no"?>
<!DOCTYPE svg PUBLIC "-//W3C//DTD SVG 20010904//EN"
 "http://www.w3.org/TR/2001/REC-SVG-20010904/DTD/svg10.dtd">
<svg version="1.0" xmlns="http://www.w3.org/2000/svg"
 width="1280.000000pt" height="1217.000000pt" viewBox="0 0 1280.000000 1217.000000"
 preserveAspectRatio="xMidYMid meet">
<metadata>
Created by potrace 1.15, written by Peter Selinger 2001-2017
</metadata>
<g transform="translate(0.000000,1217.000000) scale(0.100000,-0.100000)"
fill="#ffeb3b" stroke="none">
<path d="M6283 11858 c-56 -172 -188 -578 -293 -903 -185 -569 -358 -1102
-762 -2345 -104 -322 -225 -693 -268 -825 l-78 -240 -2441 -3 c-2316 -2 -2441
-3 -2441 -20 0 -11 652 -490 1956 -1437 1076 -781 1963 -1424 1970 -1430 11
-8 -9 -80 -107 -380 -66 -203 -181 -554 -254 -780 -73 -225 -194 -597 -268
-825 -75 -228 -226 -694 -337 -1035 -111 -341 -232 -714 -270 -830 -60 -183
-240 -739 -256 -787 -12 -38 34 -15 166 81 74 54 466 338 870 631 1099 797
1878 1363 2428 1762 271 197 497 358 502 358 5 0 231 -161 502 -358 550 -399
1329 -965 2428 -1762 404 -293 796 -577 870 -631 132 -96 178 -119 166 -81
-16 48 -196 604 -256 787 -38 116 -159 489 -270 830 -111 341 -262 806 -336
1033 -74 226 -194 598 -268 825 -74 226 -189 579 -255 782 -98 300 -118 372
-107 380 7 6 894 649 1970 1430 1305 948 1956 1426 1956 1438 0 16 -123 17
-2439 17 l-2439 0 -107 328 c-59 180 -165 507 -237 727 -71 220 -160 495 -198
610 -38 116 -159 489 -270 830 -111 341 -225 692 -254 780 -29 88 -140 429
-246 758 -147 451 -198 597 -210 597 -12 0 -41 -79 -117 -312z"/>
</g>
</svg>
